<svg xmlns="http://www.w3.org/2000/svg" viewBox="0 0 1040 660" font-family="-apple-system, 'Segoe UI', Helvetica, Arial, sans-serif">
  <defs>
    <marker id="arrow" viewBox="0 0 10 10" refX="9" refY="5" markerWidth="7" markerHeight="7" orient="auto-start-reverse">
      <path d="M 0 1 L 9 5 L 0 9 z" fill="#5b6b7a"/>
    </marker>
    <marker id="arrow-accent" viewBox="0 0 10 10" refX="9" refY="5" markerWidth="7" markerHeight="7" orient="auto-start-reverse">
      <path d="M 0 1 L 9 5 L 0 9 z" fill="#c2603e"/>
    </marker>
  </defs>

  <style>
    .h1 { font-size: 15px; font-weight: 600; fill: #2b3a49; }
    .h2 { font-size: 13px; font-weight: 600; fill: #ffffff; }
    .t  { font-size: 12px; fill: #3d4c5c; }
    .ts { font-size: 11px; fill: #6b7a89; }
    .m  { font-size: 11.5px; font-family: ui-monospace, 'SF Mono', Menlo, Consolas, monospace; fill: #34424f; }
    .ms { font-size: 10.5px; font-family: ui-monospace, 'SF Mono', Menlo, Consolas, monospace; fill: #6b7a89; }
    .mw { font-size: 11.5px; font-family: ui-monospace, 'SF Mono', Menlo, Consolas, monospace; fill: #ffffff; }
    .edge { stroke: #5b6b7a; stroke-width: 1.4; fill: none; }
    .edge-accent { stroke: #c2603e; stroke-width: 1.6; fill: none; }
  </style>

  <!-- ======================= GHA cache container ======================= -->
  <rect x="20" y="20" width="1000" height="270" rx="10" fill="#f4f6f9" stroke="#cdd6e0"/>
  <text x="40" y="48" class="h1">GitHub Actions cache &#8212; write-once blobs, LRU-evicted</text>

  <!-- SaveMutable family -->
  <text x="40" y="80" class="t">manifest versions (SaveMutable family &#8220;m&#8221;)</text>
  <g>
    <rect x="40"  y="92" width="74" height="36" rx="6" fill="#e6ebf1" stroke="#b9c5d2"/>
    <text x="77"  y="114" class="m" text-anchor="middle">m#1</text>
    <rect x="122" y="92" width="74" height="36" rx="6" fill="#e6ebf1" stroke="#b9c5d2"/>
    <text x="159" y="114" class="m" text-anchor="middle">m#2</text>
    <text x="222" y="114" class="t" text-anchor="middle">&#8230;</text>
    <rect x="248" y="92" width="86" height="36" rx="6" fill="#3f5e85" stroke="#33506f"/>
    <text x="291" y="114" class="mw" text-anchor="middle">m#N</text>
    <text x="291" y="146" class="ts" text-anchor="middle">current = highest index</text>
    <text x="60" y="170" class="ts">writers race for m#N+1;</text>
    <text x="60" y="184" class="ts">the loser re-merges and retries</text>
  </g>

  <!-- Pack blobs -->
  <text x="560" y="80" class="t">pack blobs (content-addressed, immutable)</text>
  <g>
    <rect x="560" y="92" width="200" height="36" rx="6" fill="#e6ebf1" stroke="#b9c5d2"/>
    <text x="660" y="114" class="m" text-anchor="middle">pack-3fa92c&#8230;</text>
    <rect x="560" y="136" width="200" height="36" rx="6" fill="#e6ebf1" stroke="#b9c5d2"/>
    <text x="660" y="158" class="m" text-anchor="middle">pack-b21c07&#8230;</text>
    <text x="560" y="196" class="ts">named after their BLAKE3, about 64 MiB each</text>
  </g>

  <!-- Pack interior strip -->
  <g>
    <text x="560" y="232" class="t">a pack is just concatenated zstd frames, each fetchable on its own</text>
    <rect x="560" y="242" width="100" height="30" fill="#dde7ee" stroke="#b9c5d2"/>
    <rect x="660" y="242" width="150" height="30" fill="#f2d9cd" stroke="#c2603e" stroke-width="1.5"/>
    <rect x="810" y="242" width="70"  height="30" fill="#dde7ee" stroke="#b9c5d2"/>
    <rect x="880" y="242" width="120" height="30" fill="#dde7ee" stroke="#b9c5d2"/>
    <text x="610" y="261" class="ms" text-anchor="middle">zstd(chunk)</text>
    <text x="735" y="261" class="ms" text-anchor="middle">zstd(chunk)</text>
    <text x="845" y="261" class="ms" text-anchor="middle">&#8230;</text>
    <text x="940" y="261" class="ms" text-anchor="middle">zstd(chunk)</text>
    <text x="660" y="285" class="ts">offset</text>
    <line x1="660" y1="272" x2="660" y2="276" stroke="#c2603e" stroke-width="1.5"/>
  </g>

  <!-- manifest decode arrow -->
  <path class="edge" d="M 291 128 C 291 220, 290 280, 290 318" marker-end="url(#arrow)"/>
  <text x="310" y="260" class="ts">decode (zstd + CBOR)</text>

  <!-- ======================= Manifest container ======================= -->
  <rect x="20" y="320" width="1000" height="320" rx="10" fill="#fbfcfd" stroke="#cdd6e0"/>
  <text x="40" y="348" class="h1">Manifest &#8212; one document, four maps</text>

  <!-- roots table -->
  <g>
    <rect x="150" y="366" width="320" height="24" rx="4" fill="#3f5e85"/>
    <text x="160" y="383" class="h2">roots &#8212; branch-system &#8594; Root</text>
    <rect x="150" y="390" width="320" height="58" fill="#ffffff" stroke="#cdd6e0"/>
    <text x="160" y="408" class="m">main-x86_64-linux</text>
    <text x="160" y="424" class="ms">paths: {a1f9&#8230;, 77be&#8230;}  updated, run_id</text>
    <text x="160" y="441" class="m">512/merge-aarch64-darwin &#8230;</text>
  </g>

  <!-- paths table -->
  <g>
    <rect x="150" y="470" width="320" height="24" rx="4" fill="#3f5e85"/>
    <text x="160" y="487" class="h2">paths &#8212; PathHash &#8594; PathEntry</text>
    <rect x="150" y="494" width="320" height="116" fill="#ffffff" stroke="#cdd6e0"/>
    <text x="160" y="512" class="m">a1f9&#8230; &#8594; {</text>
    <text x="174" y="528" class="ms">store_path, nar_hash, nar_size,</text>
    <text x="174" y="544" class="ms">references: [other store paths],</text>
    <text x="174" y="560" class="ms">file tree &#8594; [chunk, chunk, &#8230;],</text>
    <text x="174" y="576" class="ms">last_pushed, last_reachable</text>
    <text x="160" y="592" class="m">}</text>
  </g>

  <!-- chunks table -->
  <g>
    <rect x="530" y="366" width="330" height="24" rx="4" fill="#3f5e85"/>
    <text x="540" y="383" class="h2">chunks &#8212; ChunkHash &#8594; ChunkLocation</text>
    <rect x="530" y="390" width="330" height="92" fill="#ffffff" stroke="#cdd6e0"/>
    <text x="540" y="408" class="m">c44d&#8230; &#8594; {</text>
    <text x="554" y="424" class="ms">pack: 3fa92c&#8230;,</text>
    <text x="554" y="440" class="ms">offset, compressed_size,</text>
    <text x="554" y="456" class="ms">uncompressed_size, repacks_survived</text>
    <text x="540" y="473" class="m">}</text>
  </g>

  <!-- packs table -->
  <g>
    <rect x="530" y="504" width="330" height="24" rx="4" fill="#3f5e85"/>
    <text x="540" y="521" class="h2">packs &#8212; PackHash &#8594; PackInfo</text>
    <rect x="530" y="528" width="330" height="58" fill="#ffffff" stroke="#cdd6e0"/>
    <text x="540" y="546" class="m">3fa92c&#8230; &#8594; { size, created, tier }</text>
    <text x="540" y="566" class="ms">tier 0 = volatile &#8230; higher = stable</text>
  </g>

  <!-- intra-manifest arrows -->
  <path class="edge" d="M 290 448 L 290 470" marker-end="url(#arrow)"/>
  <text x="300" y="464" class="ts">pins</text>
  <path class="edge" d="M 470 552 L 500 552 L 500 436 L 526 436" marker-end="url(#arrow)"/>
  <path class="edge" d="M 695 482 L 695 504" marker-end="url(#arrow)"/>

  <!-- chunk location -> pack range (accent) -->
  <path class="edge-accent" d="M 695 366 L 695 280" marker-end="url(#arrow-accent)"/>
  <text x="710" y="310" class="ts" fill="#c2603e">one chunk = one Range read</text>

</svg>
